<svg width="42px" height="58px" viewBox="0 0 42 58" version="1.1" xmlns="http://www.w3.org/2000/svg" xmlns:xlink="http://www.w3.org/1999/xlink">
    <g id="Page-1" stroke="none" stroke-width="1" fill="none" fill-rule="evenodd">
        <g id="Homepage-Customers-Down-Copy" transform="translate(-442.000000, -2654.000000)" fill="#A0A7AC" fill-rule="nonzero">
            <g id="Customers-Section" transform="translate(225.765625, 2183.281250)">
                <g id="Logos" transform="translate(11.000000, 470.841403)">
                    <g id="Adobe" transform="translate(205.234375, 0.003060)">
                        <g id="g4156" transform="translate(0.301501, 43.617170)">
                            <path d="M5.29526154,8.66721486 L4.80663943,5.77283465 C4.66726259,4.93858231 4.48912538,3.63478634 4.35336349,2.73164855 L4.30034408,2.73164855 C4.15755314,3.64161484 3.9581278,4.98236327 3.81172187,5.77986414 L3.28594593,8.66721486 L5.29526154,8.66721486 Z M3.02345959,10.5532194 L2.38843149,13.7653108 L0.0425227451,13.7653108 L2.96883353,0.401806399 L5.84393211,0.401806399 L8.5021335,13.7653108 L6.14397387,13.7653108 L5.52300436,10.5532194 L3.02345959,10.5532194 Z" id="path5"></path>
                            <path d="M13.8416313,7.79600754 C13.8416313,7.61787069 13.8416313,7.40960885 13.8062853,7.21902 C13.7128989,6.55928952 13.3618457,5.9650305 12.7973096,5.9650305 C11.8289019,5.9650305 11.4726272,7.36020288 11.4726272,8.99195659 C11.4726272,10.8669161 11.9805292,11.9341343 12.7637706,11.9341343 C13.1218528,11.9341343 13.5345605,11.7505754 13.7586883,10.963718 C13.8133143,10.8068672 13.8416313,10.5970023 13.8416313,10.3517865 L13.8416313,7.79600754 Z M16.2493964,0.0471386806 L16.2493964,10.994044 C16.2493964,11.8616333 16.2935788,12.9290525 16.3289253,13.7633058 L14.249319,13.7633058 L14.1135571,12.6500987 L14.0641526,12.6500987 C13.7149069,13.3365362 12.954761,13.9201517 12.0462007,13.9201517 C10.0547593,13.9201517 9.06707155,11.7224554 9.06707155,8.94757564 C9.06707155,5.56638031 10.5397664,3.92217561 12.1450096,3.92217561 C12.984685,3.92217561 13.527933,4.33327729 13.8014653,4.92793832 L13.8420333,4.92793832 L13.8420333,0.0471386806 L16.2493964,0.0471386806 Z" id="path7"></path>
                            <path d="M21.2641504,12.0735132 C22.1831537,12.0735132 22.410695,10.3413395 22.410695,8.90720466 C22.410695,7.54376173 22.1831537,5.76721165 21.2237829,5.76721165 C20.2075772,5.76721165 19.9940939,7.54376173 19.9940939,8.90720466 C19.9940939,10.5530184 20.2622037,12.0735132 21.2428619,12.0735132 L21.2641504,12.0735132 Z M21.2183604,13.9203527 C18.9993772,13.9203527 17.6076173,12.1387831 17.6076173,8.94978163 C17.6076173,5.46937889 19.3944119,3.92237661 21.2747944,3.92237661 C23.4638537,3.92237661 24.8361331,5.79070863 24.8361331,8.89335068 C24.8361331,12.8798475 22.6860348,13.9203527 21.2378414,13.9203527 L21.2183604,13.9203527 Z" id="path9"></path>
                            <path d="M28.5898681,10.3059935 C28.5898681,10.5475964 28.6340511,10.7735312 28.685263,10.9249551 C28.9268628,11.7349074 29.336157,11.9341343 29.6641142,11.9341343 C30.595569,11.9341343 30.9713242,10.7538482 30.9713242,8.86643669 C30.9713242,7.14832806 30.574281,5.9650305 29.6534703,5.9650305 C29.1967801,5.9650305 28.8121884,6.4608826 28.6798405,6.99348718 C28.6338501,7.16098105 28.5898681,7.42185984 28.5898681,7.60180571 L28.5898681,10.3059935 Z M26.1819025,0.0471386806 L28.5896676,0.0471386806 L28.5896676,5.09181619 L28.6284281,5.09181619 C29.1027912,4.34733528 29.7344052,3.92217561 30.651601,3.92217561 C32.466713,3.92217561 33.3786873,5.98611748 33.3786873,8.68488785 C33.3786873,12.0947991 32.0186584,13.9201517 30.2563653,13.9201517 C29.4166899,13.9201517 28.8575764,13.547813 28.3530883,12.6045067 L28.3022778,12.6045067 L28.1683234,13.7633058 L26.1009676,13.7633058 C26.136314,12.9607804 26.1819025,11.8616333 26.1819025,10.994044 L26.1819025,0.0471386806 Z" id="path11"></path>
                            <path d="M39.1487672,7.99884738 C39.1612187,6.63901745 38.762368,5.68607572 37.9986071,5.68607572 C37.1272008,5.68607572 36.7566671,6.9617542 36.7303582,7.99884738 L39.1487672,7.99884738 Z M36.7215217,9.70129304 C36.7498391,11.4527427 37.6706499,12.0227002 38.81358,12.0227002 C39.5383794,12.0227002 40.1593494,11.8618343 40.6180481,11.6893205 L40.9425908,13.4214891 C40.3039478,13.6964279 39.3178671,13.8693437 38.3723539,13.8693437 C35.7882594,13.8693437 34.377019,12.1034321 34.377019,9.08735152 C34.377019,5.85055659 36.0139937,3.90651113 38.151841,3.90651113 C40.2173899,3.90651113 41.3621275,5.62462126 41.3621275,8.42923005 C41.3621275,9.07128654 41.3356175,9.43298225 41.293242,9.71495103 L36.7215217,9.70129304 Z" id="path13"></path>
                        </g>
                        <g id="g4151" transform="translate(0.000000, 0.000022)">
                            <polygon id="polygon15" points="41.6656368 -2.10057123e-05 41.6656368 36.8749892 26.2630922 -2.10057123e-05"></polygon>
                            <polygon id="polygon17" points="2.32150765e-07 -2.10057123e-05 2.32150765e-07 36.8749892 15.4113815 -2.10057123e-05"></polygon>
                            <polygon id="polygon19" points="30.6516546 36.8729809 24.222246 36.8729809 21.2868978 29.4558846 14.1025648 29.4558846 20.8390443 13.5874117"></polygon>
                        </g>
                    </g>
                </g>
            </g>
        </g>
    </g>
</svg>