<svg width="101px" height="35px" viewBox="0 0 101 35" version="1.1" xmlns="http://www.w3.org/2000/svg" xmlns:xlink="http://www.w3.org/1999/xlink">
    <defs>
        <linearGradient x1="49.9998746%" y1="100.010397%" x2="49.9998746%" y2="0%" id="linearGradient-1">
            <stop stop-color="#A0A7AC" stop-opacity="0" offset="0%"></stop>
            <stop stop-color="#A0A7AC" offset="100%"></stop>
        </linearGradient>
    </defs>
    <g id="Page-1" stroke="none" stroke-width="1" fill="none" fill-rule="evenodd">
        <g id="Homepage-Customers-Down-Copy" transform="translate(-1154.000000, -2666.000000)">
            <g id="Customers-Section" transform="translate(225.765625, 2183.281250)">
                <g id="Logos" transform="translate(11.000000, 470.841403)">
                    <g id="Engielogo" transform="translate(917.234375, 11.306020)">
                        <g id="Group" transform="translate(0.408655, 0.730882)">
                            <path d="M100.633927,15.4377494 C87.5226608,5.86129502 69.8125324,0 50.3169634,0 C30.8213945,0 13.1112661,5.86129502 0,15.4377494 L100.633927,15.4377494 Z" id="Shape" fill="url(#linearGradient-1)"></path>
                            <g transform="translate(3.246256, 17.674059)" fill="#A0A7AC" fill-rule="nonzero" id="Shape">
                                <path d="M39.7305629,0.50497311 C38.7927557,0.50497311 38.3058173,1.26243277 38.1795741,2.20023998 C38.035296,3.22822095 37.4942534,6.79910223 37.3860449,7.70083992 C37.3139059,8.24188254 37.2778364,8.81899467 36.7548285,9.05344647 C36.2318206,9.28789827 35.5825695,8.92720319 35.0415269,8.45829959 C34.5004843,7.98939599 26.4028797,1.10011999 26.4028797,1.10011999 C25.9339761,0.685320649 25.356864,0.50497311 24.7977866,0.50497311 C23.5714234,0.50497311 22.3991644,1.26243277 22.3991644,3.12001243 L22.3991644,14.6081507 C22.3991644,15.5098884 23.0303808,16.0689657 23.7878404,16.0689657 C24.6174391,16.0689657 25.1584817,15.5098884 25.284725,14.7163592 C25.284725,14.7163592 26.1684279,9.23379401 26.2766365,8.63864713 C26.4028797,7.93529173 26.5110883,7.37621435 27.1964089,7.15979731 C27.8095905,6.96141501 28.4047374,7.32211009 29.2704056,8.09760451 C30.1360738,8.85506418 37.4221144,15.4377494 37.4221144,15.4377494 C37.9811918,15.906653 38.3779563,16.1050353 39.1714855,16.1050353 C39.8928757,16.1050353 41.191378,15.8164792 41.191378,13.6162392 L41.191378,2.16417047 C41.191378,1.08208524 40.5421268,0.50497311 39.7305629,0.50497311 Z"></path>
                                <path d="M91.8690365,12.7325363 C85.5208031,14.1031776 78.2527973,12.6423625 78.2527973,8.15170877 C78.2527973,4.76117504 81.4088792,3.37249898 83.8796405,3.17411669 C86.4766451,2.95769964 88.5145722,3.51677701 89.560588,4.59886225 C90.2098391,5.2841829 90.0294916,6.20395535 88.749024,6.27609436 C87.5587303,6.34823338 85.3404556,6.4203724 83.5009107,6.49251141 C82.4548949,6.52858092 81.8958176,7.08765829 81.8958176,7.84511796 C81.8958176,8.44026484 82.3466864,9.12558548 83.5550149,9.12558548 C85.2863513,9.12558548 89.6687965,9.16165499 91.8510017,9.16165499 C93.293782,9.16165499 93.9971374,8.36812582 93.9971374,6.70892846 C93.9971374,4.09388914 91.6165499,0.108208524 84.6731697,0.108208524 C78.3790405,0.108208524 73.8162478,3.24625571 73.8162478,8.36812582 C73.8162478,15.6361316 84.5288916,17.8544064 92.3559748,15.167228 C93.0953997,14.9147415 93.7807204,14.3736989 93.5643033,13.5441002 C93.365921,12.82271 92.7707742,12.5521887 91.8690365,12.7325363 Z"></path>
                                <path d="M18.1970667,12.7325363 C11.8488333,14.1031776 4.5808275,12.6423625 4.5808275,8.15170877 C4.5808275,4.76117504 7.73690943,3.37249898 10.2076707,3.17411669 C12.8046753,2.95769964 14.8426025,3.51677701 15.8886182,4.59886225 C16.5378693,5.2841829 16.3575218,6.20395535 15.0770543,6.27609436 C13.8867605,6.34823338 11.6684858,6.4203724 9.82894089,6.49251141 C8.78292516,6.52858092 8.22384779,7.08765829 8.22384779,7.84511796 C8.22384779,8.44026484 8.67471664,9.12558548 9.88304515,9.12558548 C11.6143815,9.12558548 15.9968267,9.16165499 18.179032,9.16165499 C19.6218123,9.16165499 20.3251677,8.36812582 20.3251677,6.70892846 C20.3251677,4.09388914 17.9445802,0.108208524 11.0011999,0.108208524 C4.70707077,0.108208524 0.144278031,3.24625571 0.144278031,8.36812582 C0.144278031,15.6361316 10.8569219,17.8544064 18.6840051,15.167228 C19.42343,14.9147415 20.1087506,14.3736989 19.8923336,13.5441002 C19.711986,12.82271 19.0988044,12.5521887 18.1970667,12.7325363 Z"></path>
                                <g transform="translate(67.089285, 0.000000)">
                                    <path d="M0.288556063,5.7530865 C0.432834094,9.72073236 0.793529173,13.0030576 0.901737696,14.1572818 C1.02798097,15.6361316 1.80347539,16.0689657 2.57896981,16.0689657 C3.31839472,16.0689657 4.11192389,15.6902359 4.23816717,14.1753166 C4.3463757,12.9128838 4.72510553,8.98130745 4.90545307,5.10383536 C4.92348782,4.90545307 4.77920979,4.8152793 4.616897,4.8513488 L0.486938356,5.5186347 C0.378729832,5.53666945 0.288556063,5.62684322 0.288556063,5.7530865 Z"></path>
                                    <path d="M2.59700456,0.126243277 C0.703355403,0.126243277 0.144278031,1.6050931 0.162312785,2.52486555 C0.162312785,2.68717833 0.180347539,3.15608194 0.216417047,3.75122882 C0.216417047,3.87747209 0.342660325,4.00371537 0.50497311,3.98568062 L4.8152793,3.28232521 C4.95955733,3.24625571 5.01366159,3.15608194 5.03169634,3.04787341 C5.0497311,2.84949112 5.0497311,2.63307407 5.0497311,2.5429003 C5.06776585,1.65919736 4.50868848,0.126243277 2.59700456,0.126243277 Z"></path>
                                </g>
                                <path d="M63.3560905,6.4564419 C61.9133102,6.4564419 57.4767607,6.49251141 54.6453044,6.49251141 C53.2746631,6.49251141 52.9320028,7.23193632 52.9320028,7.84511796 C52.9320028,8.38616057 53.2926978,9.07148122 54.5912001,9.14362024 C56.5569883,9.25182876 59.0457843,9.36003729 60.1819738,9.41414155 C61.7329627,9.48628056 61.7509974,10.2978445 61.2279896,10.9651304 C60.1819738,12.3357717 57.6210388,13.2375094 54.96993,13.2375094 C51.5072572,13.2375094 47.6838894,11.2717212 47.6838894,8.13367402 C47.6838894,5.19400913 50.9481798,1.96578818 60.6508774,3.33642948 C61.4985109,3.46267275 62.3461443,3.30035997 62.5625614,2.5068308 C62.7789784,1.65919736 62.2379358,1.1361895 61.1378158,0.82959868 C58.9375758,0.252486555 56.9357181,0.108208524 55.0240342,0.108208524 C48.4954533,0.108208524 43.2473399,3.22822095 43.2473399,8.2599173 C43.2473399,13.634274 48.4593838,16.267348 54.96993,16.267348 C62.2379358,16.267348 65.7727476,12.3177369 65.7727476,8.85506418 C65.7547128,7.1237278 64.8529751,6.4564419 63.3560905,6.4564419 Z"></path>
                            </g>
                        </g>
                    </g>
                </g>
            </g>
        </g>
    </g>
</svg>