<svg width="54px" height="44px" viewBox="0 0 54 44" version="1.1" xmlns="http://www.w3.org/2000/svg" xmlns:xlink="http://www.w3.org/1999/xlink">
    <g id="Page-1" stroke="none" stroke-width="1" fill="none" fill-rule="evenodd">
        <g id="Homepage-Customers-Down-Copy" transform="translate(-1004.000000, -2661.000000)" fill="#A0A7AC" fill-rule="nonzero">
            <g id="Customers-Section" transform="translate(225.765625, 2183.281250)">
                <g id="Logos" transform="translate(11.000000, 470.841403)">
                    <g id="20th_Century_Fox" transform="translate(767.234375, 7.003060)">
                        <path d="M4.01692397,29.6806292 C3.99348758,30.0952872 4.47484989,30.205261 4.84443596,29.976298 L10.5216403,0.167818404 L42.0464425,0.167818404 L43.5247868,6.25968079 L39.9605339,4.81198582 L38.7273777,5.0788078 L38.7327929,7.02950222 L31.211263,4.01692397 C31.211263,4.01692397 26.5797174,2.88833425 23.4751929,5.19599452 C22.350208,6.20018621 21.522696,7.32517107 20.8123692,8.50784648 C18.7426872,7.6803345 16.7919928,5.90451736 14.2481582,6.91051307 C10.8695988,7.80473253 9.75362928,12.234358 9.75362928,12.234358 L12.8851967,11.7331626 C12.8851967,11.7331626 13.3088684,9.2830768 16.0221714,9.69052349 C17.2643414,9.90686624 16.4963239,11.0498786 16.4963239,11.0498786 L9.75362928,18.798569 L9.75362928,19.8640593 L19.5936372,17.7114447 L19.5936372,15.6057046 L15.4903282,16.6098979 L18.8580699,12.484955 C19.6729617,11.4068445 19.9596168,9.57874565 19.2168382,8.27167221 L20.6356895,8.92250449 C19.9848572,10.6370246 19.865868,13.1808592 21.1675326,14.6592034 C22.3069401,16.2475231 25.3591814,16.4927111 25.3591814,16.4927111 L30.0988984,15.4272224 C32.6787911,13.7938308 34.5339328,10.57753 33.7064208,7.32517107 C33.4702465,6.43816451 33.0555885,5.6088485 32.2280765,4.95982024 L38.727384,7.6929547 L38.727384,13.1718454 L39.9677516,12.9356696 L39.9677516,10.5342605 C39.9677516,9.3137261 40.921464,9.32093742 40.921464,10.5036128 L40.921464,12.8329071 L42.0464489,12.647212 L42.0464489,8.92250449 L44.2333176,9.75001806 L45.2988079,14.1255579 L42.8739609,13.06187 L8.79450794,20.8628437 L8.79450794,21.8363876 L9.45796042,22.2294101 C9.45796042,22.2294101 8.42492187,23.516652 9.01806201,24.8183166 C9.12623497,25.0869426 9.61661262,25.6836892 10.0709321,25.6656617 C10.0709321,25.6656617 12.3389293,25.2834554 12.5282308,25.2473972 C12.7175307,25.2095382 13.0023818,24.553297 13.0023818,24.553297 L11.9873723,23.9403238 C11.8647783,24.5388744 10.8299357,25.1392258 10.2854724,24.2395991 C10.1087927,23.7960958 10.0024238,23.1741088 10.7109482,22.6765198 C11.4230775,22.1428743 11.9693432,22.9108917 11.9693432,22.9108917 L13.0168044,22.3844574 C12.8617587,22.0437166 12.4146505,21.9337412 12.4146505,21.9337412 L13.283628,22.2077761 L13.283628,25.1085781 L16.5450007,24.5442833 L16.5450007,23.6482614 L14.8899768,23.9980159 L14.8899768,23.5022294 L16.5450007,23.1218255 L16.5450007,22.0419142 L14.8701452,22.3934712 L14.8701452,21.8580216 L16.5450007,21.44697 L16.5450007,20.3273941 L17.3130197,20.6302742 L17.3130197,24.407265 L18.6759813,24.1728932 L18.6759813,21.9535728 L20.633887,23.8033071 L21.8688457,23.5707377 L21.8688457,19.1591413 L22.7450345,19.335821 L22.7450345,20.3472256 L23.8267499,20.10384 L23.8267499,23.2191807 L25.1788952,22.9866113 L25.1788952,19.8027623 L26.2497944,19.521516 L26.2497944,18.2432879 L26.9024291,18.508309 C26.9024291,18.508309 26.9024291,20.6591195 26.9024291,21.6615104 C27.0286296,22.5701509 27.8507327,22.465586 27.8507327,22.465586 L30.4306254,21.9932358 C30.4306254,21.9932358 31.2743625,21.8670353 31.2743625,20.8736598 L31.2743625,17.3094069 L32.208245,17.7781506 L32.208245,21.7210049 L34.0579778,21.3694464 L34.0615826,20.1002335 L35.743651,21.0611573 L37.8656163,20.6717397 L36.0717716,19.3304121 C36.6036148,18.8580636 36.800126,17.9800707 36.6036148,17.4392139 C36.4052995,16.8839327 35.8355958,16.6693924 35.8355958,16.6693924 L37.6114129,17.2156582 L38.8968524,18.3730948 L38.8968524,20.4932576 L40.4346912,20.2011936 L40.4346912,18.0882421 L42.5782904,14.8953777 L45.7711548,15.9590656 L47.132314,22.2294101 L42.5133885,20.8394057 L8.68813741,26.5093987 L8.68813741,27.4342659 L9.57514397,27.966109 L9.57514397,33.4071391 L12.0829219,33.1691624 L12.0901317,31.9071609 L16.0816628,31.5736314 L16.0816628,29.5778667 L12.0901317,29.9474528 L12.0901317,28.6169413 L16.1411573,28.2022849 L16.1411573,26.2515905 C16.7919896,26.4877648 17.560007,26.6049515 18.1513463,26.9006203 C17.560007,27.7876269 16.7919896,28.5574483 16.7919896,29.6806292 C16.6730005,30.7461195 17.6789962,31.633126 18.5065098,32.1054746 L19.0383529,32.3434529 L27.7335444,31.2779626 C28.620551,30.5676357 29.5670521,29.7401237 29.5670521,28.6169413 C29.5670521,27.4919581 28.7972307,26.4877648 27.8507295,25.8369325 C27.171052,25.2528061 26.2533961,24.9499259 25.3086974,24.7714422 L27.3188864,24.4757734 C29.0928995,25.5412636 32.7599165,27.4342659 32.7599165,27.4342659 L29.1307601,30.9822937 L33.2394764,30.4053787 L35.1252673,28.9126118 L37.5501143,30.0952872 L41.5127985,29.4444549 L37.4329276,26.9006203 L42.5782888,22.1104225 L47.5451679,23.8267451 C47.5451679,23.8267451 48.6845739,27.9877446 48.8684665,28.5790823 C49.0541599,29.17042 49.9051099,28.9126118 49.7933336,28.3212725 L47.0133232,0.167818404 L53.1989343,0.1587983 L53.1989343,37.9593539 L50.8281746,37.6726988 L50.8281746,32.3127972 C50.8281746,30.9822874 48.4628222,30.9822874 48.4628222,32.3127972 L42.9911444,30.3314551 C42.9911444,30.3314551 9.68692021,34.124671 8.9243101,34.3536339 C8.24463254,34.456398 6.49946469,35.5363109 6.26329041,36.8379755 C5.96762156,38.0206509 6.55895927,39.2033263 7.5054604,40.0308399 L5.080615,40.3265087 C5.080615,40.3265087 5.09503446,36.6378578 5.080615,34.8999013 C5.06619554,33.1637472 2.62692273,33.08983 2.65576801,34.9035061 L2.65576801,40.6221776 L0.185850672,40.9629184 L0.158807828,0.1587983 L4.83181893,0.1587983 L4.01692715,29.6806228" id="path7435"></path>
                        <path d="M44.2333112,9.33536006 C42.6954724,8.72959812 40.6636494,7.54692271 39.9749565,8.80351534 L39.9749565,5.19599452 L43.5247868,6.67433879 L44.2333112,9.33536006" id="path7437"></path>
                        <path d="M29.8032232,7.08899679 C30.6830184,7.84259156 30.8074165,9.15867877 30.5117476,10.2818612 C30.098892,11.8791946 28.5015586,13.06187 27.0232144,13.4170335 C26.0172186,13.4170335 25.1608598,13.6009245 24.2432055,12.8851903 C23.3273521,12.1676521 23.0605285,10.992188 23.415692,9.86720319 C23.9475351,8.27167221 25.4853755,6.91051307 27.1422035,6.49585665 C28.1463952,6.37866993 28.9234279,6.333598 29.8032232,7.08899679" id="path7439"></path>
                        <polyline id="path7441" points="36.4864233 9.54268906 37.5951831 9.32093742 37.5951831 10.6514473 36.4864233 10.9110595 36.4864233 13.7938308 35.3037479 14.0083712 35.3037479 8.72959812 36.4864233 8.50784648 36.4864233 9.54268906"></polyline>
                        <polyline id="path7443" points="39.9749565 16.1375493 39.5621025 17.1435434 38.3794255 15.8418789 39.9749565 16.1375493"></polyline>
                        <path d="M29.5363996,18.1621593 L29.5345892,20.8826752 C29.5345892,21.3496148 28.6493851,21.3604326 28.6493851,20.8736551 L28.6493851,17.835838 L29.5363917,18.1621546" id="path7445"></path>
                        <path d="M34.8890899,18.0882421 C34.9485844,18.6795798 34.0615779,18.7390744 34.0615779,18.7390744 L34.0615779,17.8520678 C34.0615779,17.8520678 34.7124102,17.6753881 34.8890899,18.0882421" id="path7447"></path>
                        <polyline id="path7449" points="20.6356831 21.9932358 18.3875174 19.6855755 20.6338807 20.3382118 20.6356752 21.9932358"></polyline>
                        <polyline id="path7451" points="36.3007298 24.513634 35.19197 25.6223922 31.9918943 23.5887668 36.3007298 24.513634"></polyline>
                        <polyline id="path7453" points="48.462819 37.4148969 22.7648597 34.885485 17.7366851 34.3536403 29.5670489 33.1114703 42.4592981 31.6926206 48.4574102 33.6361037 48.4628254 37.4148969"></polyline>
                        <path d="M53.1989312,39.2592224 L53.1917214,43.1948638 L0.173228879,43.1948638 L0.185853848,41.8499313 L10.1664848,40.3265151 C10.1664848,40.3265151 7.74163786,39.6179907 7.32878388,38.3163261 C7.03311502,37.4888141 7.2692893,36.6594981 7.86062701,36.0681604 C9.7608406,34.1607355 18.3875238,35.5363173 18.3875238,35.5363173 L53.1989375,39.2592224" id="path7455"></path>
                        <path d="M50.8588192,29.0297969 L47.9598212,29.563444 C47.9598212,29.563444 48.2410674,31.1301282 49.7572723,30.8344593 C51.2716747,30.5387905 50.8588192,29.0297969 50.8588192,29.0297969" id="path7461"></path>
                        <path d="M23.2390123,30.4035762 C25.0328569,30.1006961 26.3597619,29.1055165 26.2047161,28.1806494 C26.0478679,27.2539798 24.468562,26.7491795 22.6747174,27.0520596 C20.8808712,27.3549398 19.5539678,28.3501193 19.7090135,29.2749865 C19.8658617,30.1998521 21.4451676,30.704654 23.2390123,30.4035762" id="path7463"></path>
                        <path d="M5.74226029,31.0291681 L2.8486712,30.4720846 C2.8486712,30.4720846 2.54038214,32.0351638 4.06019189,32.3091987 C5.58000323,32.585036 5.74226029,31.0291681 5.74226029,31.0291681" id="path7465"></path>
                    </g>
                </g>
            </g>
        </g>
    </g>
</svg>