<svg width="14px" height="14px" viewBox="93 37 14 14" version="1.1" xmlns="http://www.w3.org/2000/svg" xmlns:xlink="http://www.w3.org/1999/xlink">
    <defs>
        <ellipse id="path-1" cx="7" cy="7" rx="7" ry="7"></ellipse>
        <rect id="path-3" x="0" y="0" width="20.6956522" height="14.6086957" rx="2"></rect>
        <rect id="path-5" x="0" y="0" width="8.86956522" height="6.8173913"></rect>
        <filter x="-50%" y="-50%" width="200%" height="200%" filterUnits="objectBoundingBox" id="filter-6">
            <feMorphology radius="1" operator="erode" in="SourceAlpha" result="shadowSpreadInner1"></feMorphology>
            <feOffset dx="0" dy="0" in="shadowSpreadInner1" result="shadowOffsetInner1"></feOffset>
            <feComposite in="shadowOffsetInner1" in2="SourceAlpha" operator="arithmetic" k2="-1" k3="1" result="shadowInnerInner1"></feComposite>
            <feColorMatrix values="0 0 0 0 0   0 0 0 0 0   0 0 0 0 0  0 0 0 0.2 0" type="matrix" in="shadowInnerInner1"></feColorMatrix>
        </filter>
        <rect id="path-7" x="0" y="1" width="19.7101449" height="13.6347826" rx="1"></rect>
        <rect id="path-9" x="0" y="0" width="16" height="19" rx="2"></rect>
        <rect id="path-11" x="0" y="1.1875" width="15.2380952" height="17.7333333" rx="1"></rect>
    </defs>
    <g id="US-Copy" stroke="none" stroke-width="1" fill="none" fill-rule="evenodd" transform="translate(93.000000, 37.000000)">
        <mask id="mask-2" fill="white">
            <use xlink:href="#path-1"></use>
        </mask>
        <use id="Mask" fill="#D8D8D8" xlink:href="#path-1"></use>
        <g id="US" mask="url(#mask-2)">
            <g transform="translate(0.000000, -0.608696)">
                <mask id="mask-4" fill="white">
                    <use xlink:href="#path-3"></use>
                </mask>
                <use id="background" stroke="none" fill="#FFFFFF" fill-rule="evenodd" xlink:href="#path-3"></use>
                <g id="rectangle" stroke="none" fill="none" mask="url(#mask-4)">
                    <use fill="#435DB0" fill-rule="evenodd" xlink:href="#path-5"></use>
                    <use fill="black" fill-opacity="1" filter="url(#filter-6)" xlink:href="#path-5"></use>
                </g>
                <path d="M1,1 L1,1.97391304 L1.98550725,1.97391304 L1.98550725,1 L1,1 L1,1 Z M2.97101449,1 L2.97101449,1.97391304 L3.95652174,1.97391304 L3.95652174,1 L2.97101449,1 L2.97101449,1 Z M4.94202899,1 L4.94202899,1.97391304 L5.92753623,1.97391304 L5.92753623,1 L4.94202899,1 L4.94202899,1 Z M6.91304348,1 L6.91304348,1.97391304 L7.89855072,1.97391304 L7.89855072,1 L6.91304348,1 L6.91304348,1 Z M5.92753623,1.97391304 L5.92753623,2.94782609 L6.91304348,2.94782609 L6.91304348,1.97391304 L5.92753623,1.97391304 L5.92753623,1.97391304 Z M3.95652174,1.97391304 L3.95652174,2.94782609 L4.94202899,2.94782609 L4.94202899,1.97391304 L3.95652174,1.97391304 L3.95652174,1.97391304 Z M1.98550725,1.97391304 L1.98550725,2.94782609 L2.97101449,2.94782609 L2.97101449,1.97391304 L1.98550725,1.97391304 L1.98550725,1.97391304 Z M1,2.94782609 L1,3.92173913 L1.98550725,3.92173913 L1.98550725,2.94782609 L1,2.94782609 L1,2.94782609 Z M2.97101449,2.94782609 L2.97101449,3.92173913 L3.95652174,3.92173913 L3.95652174,2.94782609 L2.97101449,2.94782609 L2.97101449,2.94782609 Z M4.94202899,2.94782609 L4.94202899,3.92173913 L5.92753623,3.92173913 L5.92753623,2.94782609 L4.94202899,2.94782609 L4.94202899,2.94782609 Z M6.91304348,2.94782609 L6.91304348,3.92173913 L7.89855072,3.92173913 L7.89855072,2.94782609 L6.91304348,2.94782609 L6.91304348,2.94782609 Z M1,4.89565217 L1,5.86956522 L1.98550725,5.86956522 L1.98550725,4.89565217 L1,4.89565217 L1,4.89565217 Z M2.97101449,4.89565217 L2.97101449,5.86956522 L3.95652174,5.86956522 L3.95652174,4.89565217 L2.97101449,4.89565217 L2.97101449,4.89565217 Z M4.94202899,4.89565217 L4.94202899,5.86956522 L5.92753623,5.86956522 L5.92753623,4.89565217 L4.94202899,4.89565217 L4.94202899,4.89565217 Z M6.91304348,4.89565217 L6.91304348,5.86956522 L7.89855072,5.86956522 L7.89855072,4.89565217 L6.91304348,4.89565217 L6.91304348,4.89565217 Z M5.92753623,3.92173913 L5.92753623,4.89565217 L6.91304348,4.89565217 L6.91304348,3.92173913 L5.92753623,3.92173913 L5.92753623,3.92173913 Z M3.95652174,3.92173913 L3.95652174,4.89565217 L4.94202899,4.89565217 L4.94202899,3.92173913 L3.95652174,3.92173913 L3.95652174,3.92173913 Z M1.98550725,3.92173913 L1.98550725,4.89565217 L2.97101449,4.89565217 L2.97101449,3.92173913 L1.98550725,3.92173913 L1.98550725,3.92173913 Z" id="stars" stroke="none" fill="#A7B6E7" fill-rule="evenodd" mask="url(#mask-4)"></path>
                <path d="M8.86956522,0 L8.86956522,0.973913043 L20.6956522,0.973913043 L20.6956522,0 L8.86956522,0 L8.86956522,0 Z M8.86956522,1.94782609 L8.86956522,2.92173913 L20.6956522,2.92173913 L20.6956522,1.94782609 L8.86956522,1.94782609 L8.86956522,1.94782609 Z M8.86956522,3.89565217 L8.86956522,4.86956522 L20.6956522,4.86956522 L20.6956522,3.89565217 L8.86956522,3.89565217 L8.86956522,3.89565217 Z M8.86956522,5.84347826 L8.86956522,6.8173913 L20.6956522,6.8173913 L20.6956522,5.84347826 L8.86956522,5.84347826 L8.86956522,5.84347826 Z M0,7.79130435 L0,8.76521739 L20.6956522,8.76521739 L20.6956522,7.79130435 L0,7.79130435 L0,7.79130435 Z M0,9.73913043 L0,10.7130435 L20.6956522,10.7130435 L20.6956522,9.73913043 L0,9.73913043 L0,9.73913043 Z M0,11.6869565 L0,12.6608696 L20.6956522,12.6608696 L20.6956522,11.6869565 L0,11.6869565 L0,11.6869565 Z M0,13.6347826 L0,14.6086957 L20.6956522,14.6086957 L20.6956522,13.6347826 L0,13.6347826 L0,13.6347826 Z" id="stripe" stroke="none" fill="#ED4C49" fill-rule="evenodd" mask="url(#mask-4)"></path>
                <mask id="mask-8" fill="white">
                    <use xlink:href="#path-7"></use>
                </mask>
                <use id="overlay" stroke-opacity="0.156646286" stroke="#2F343A" stroke-width="1" fill="none" xlink:href="#path-7"></use>
            </g>
        </g>
        <g id="FR" mask="url(#mask-2)">
            <g transform="translate(-1.000000, -2.000000)">
                <mask id="mask-10" fill="white">
                    <use xlink:href="#path-9"></use>
                </mask>
                <use id="background" stroke="none" fill="#FFFFFF" fill-rule="evenodd" xlink:href="#path-9"></use>
                <rect id="left" stroke="none" fill="#435DB0" fill-rule="evenodd" mask="url(#mask-10)" x="0" y="0" width="5.33333333" height="19"></rect>
                <rect id="right" stroke="none" fill="#ED4C49" fill-rule="evenodd" mask="url(#mask-10)" x="11" y="0" width="5.33333333" height="19"></rect>
                <mask id="mask-12" fill="white">
                    <use xlink:href="#path-11"></use>
                </mask>
                <use id="overlay" stroke-opacity="0.156646286" stroke="#2F343A" stroke-width="1" fill="none" xlink:href="#path-11"></use>
            </g>
        </g>
    </g>
</svg>