<svg width="114px" height="37px" viewBox="0 0 114 37" version="1.1" xmlns="http://www.w3.org/2000/svg" xmlns:xlink="http://www.w3.org/1999/xlink">
    <g id="Page-1" stroke="none" stroke-width="1" fill="none" fill-rule="evenodd">
        <g id="Homepage-Customers-Down-Copy" transform="translate(-794.000000, -2664.000000)" fill="#A0A7AC" fill-rule="nonzero">
            <g id="Customers-Section" transform="translate(225.765625, 2183.281250)">
                <g id="Logos" transform="translate(11.000000, 470.841403)">
                    <g id="Experian" transform="translate(557.234375, 9.503060)">
                        <path d="M18.7687373,9.50285556 L14.6463654,9.50285556 C13.3983079,9.50285556 12.4149898,8.51953751 12.4149898,7.27147997 L12.4149898,3.14910811 C12.4149898,1.9388705 13.3983079,0.917732517 14.6463654,0.917732517 L18.7687373,0.917732517 C19.9789749,0.917732517 21.0001129,1.90105058 21.0001129,3.14910811 L21.0001129,7.27147997 C21.0001129,8.51953751 20.0167948,9.50285556 18.7687373,9.50285556" id="Shape"></path>
                        <path d="M8.0656984,18.7687373 L3.45166751,18.7687373 C2.05233028,18.7687373 0.955552442,17.6341395 0.955552442,16.2726222 L0.955552442,11.6207714 C0.955552442,10.2592541 2.0901502,9.12465631 3.45166751,9.12465631 L8.10351833,9.12465631 C9.50285556,9.12465631 10.5996334,10.2592541 10.5996334,11.6207714 L10.5996334,16.2726222 C10.5996334,17.6719594 9.46503564,18.7687373 8.0656984,18.7687373" id="Shape"></path>
                        <path d="M7.64967922,28.4128182 L4.81318482,28.4128182 C3.98114647,28.4128182 3.30038781,27.7320596 3.30038781,26.9000212 L3.30038781,24.0635268 C3.30038781,23.2314885 3.98114647,22.5507298 4.81318482,22.5507298 L7.64967922,22.5507298 C8.48171758,22.5507298 9.16247624,23.2314885 9.16247624,24.0635268 L9.16247624,26.9000212 C9.16247624,27.7320596 8.48171758,28.4128182 7.64967922,28.4128182" id="Shape"></path>
                        <path d="M15.2514842,37.3761405 L11.8855109,37.3761405 C10.9021928,37.3761405 10.0701544,36.5819221 10.0701544,35.5607841 L10.0701544,32.1948108 C10.0701544,31.2114927 10.8643729,30.3794543 11.8855109,30.3794543 L15.2514842,30.3794543 C16.2348023,30.3794543 17.0668406,31.1736728 17.0668406,32.1948108 L17.0668406,35.5607841 C17.0668406,36.5819221 16.2726222,37.3761405 15.2514842,37.3761405" id="Shape"></path>
                        <path d="M27.5429599,11.2047522 L25.2359445,11.2047522 C24.5551858,11.2047522 23.987887,10.6374533 23.987887,9.95669467 L23.987887,7.64967922 C23.987887,6.96892057 24.5551858,6.40162169 25.2359445,6.40162169 L27.5429599,6.40162169 C28.2237186,6.40162169 28.7910175,6.96892057 28.7910175,7.64967922 L28.7910175,9.95669467 C28.8288374,10.6374533 28.2615385,11.2047522 27.5429599,11.2047522" id="Shape"></path>
                        <path d="M78.4485794,12.7553691 C79.2049779,12.7553691 79.7722768,12.1502503 79.7722768,11.4316718 C79.7722768,10.6752732 79.167158,10.1079744 78.4485794,10.1079744 C77.6921809,10.1079744 77.0870621,10.7130932 77.0870621,11.4316718 C77.0870621,12.1502503 77.6921809,12.7553691 78.4485794,12.7553691 Z" id="Shape"></path>
                        <path d="M29.547416,27.0513009 C29.3583164,27.3538603 29.017937,27.50514 28.6397378,27.50514 C28.4506381,27.50514 28.1858987,27.4673201 28.034619,27.3538603 C27.7320596,27.1647607 27.5429599,26.7865614 27.5429599,26.4083622 C27.5429599,26.2192626 27.5807799,26.0301629 27.6942396,25.8788832 L30.7954735,21.0001129 L27.6942396,16.1213425 C27.5807799,15.9700628 27.5429599,15.7431432 27.5429599,15.5918635 C27.5429599,15.2136643 27.7320596,14.835465 28.0724389,14.6463654 C28.2615385,14.5329056 28.4506381,14.4950857 28.6397378,14.4950857 C29.017937,14.4950857 29.3583164,14.6463654 29.5852359,14.9489248 L32.1191709,18.9578369 L34.6909258,14.9489248 C34.8800255,14.6463654 35.2582247,14.4950857 35.636424,14.4950857 C35.8255236,14.4950857 36.0146232,14.5329056 36.2037228,14.6463654 C36.5441022,14.835465 36.7332018,15.2136643 36.7332018,15.5918635 C36.7332018,15.7809632 36.6953819,15.9700628 36.5819221,16.1213425 L33.4806882,21.0001129 L36.5819221,25.8788832 C36.6953819,26.0301629 36.7332018,26.2192626 36.7332018,26.4083622 C36.7332018,26.7865614 36.5441022,27.2025806 36.2415428,27.3538603 C36.0524431,27.4673201 35.8255236,27.50514 35.636424,27.50514 C35.2582247,27.50514 34.9556653,27.3538603 34.7287458,27.0513009 L32.1569908,23.0802088 L29.547416,27.0513009 Z" id="Shape"></path>
                        <path d="M40.6286541,15.9700628 C41.8010718,14.9111049 43.3895086,14.2681662 45.0914053,14.2681662 C48.8355779,14.2681662 51.7855321,17.2559403 51.7855321,20.9622929 C51.7855321,24.6308257 48.797758,27.6185998 45.0914053,27.6185998 C43.3895086,27.6185998 41.8010718,26.9756611 40.6286541,25.9167032 L40.6286541,31.6275119 C40.6286541,32.1948108 40.0991751,32.6864698 39.5318763,32.6864698 C39.0023973,32.6864698 38.4350984,32.1948108 38.4350984,31.6275119 L38.4350984,15.4405838 C38.4350984,14.873285 38.9645774,14.3816259 39.5318763,14.3816259 C40.1369951,14.3816259 40.6286541,14.873285 40.6286541,15.4405838 L40.6286541,15.9700628 Z M45.0535854,16.4995417 C42.5574703,16.4995417 40.5908342,18.4661779 40.5908342,20.9622929 C40.5908342,23.458408 42.5574703,25.4250441 45.0535854,25.4250441 C47.5497004,25.4250441 49.5163366,23.458408 49.5163366,20.9622929 C49.5541565,18.4661779 47.5875204,16.4995417 45.0535854,16.4995417 Z" id="Shape"></path>
                        <path d="M70.7333147,19.7520553 L70.7333147,26.4461821 C70.7333147,27.013481 70.2038357,27.50514 69.6365368,27.50514 C69.031418,27.50514 68.539759,27.013481 68.539759,26.4461821 L68.539759,15.4405838 C68.539759,14.873285 69.0692379,14.3816259 69.6365368,14.3816259 C70.1660158,14.3816259 70.6954947,14.835465 70.7333147,15.4027639 C71.6409929,14.7220053 72.8134105,14.3059861 74.0614681,14.3059861 C74.7422267,14.3059861 75.2717057,14.835465 75.2717057,15.4027639 C75.2717057,16.0078827 74.7422267,16.5373617 74.0614681,16.5373617 C72.3595714,16.5751816 70.7333147,17.1803004 70.7333147,19.7520553 Z" id="Shape"></path>
                        <path d="M78.4485794,14.3816259 C77.8434606,14.3816259 77.3518016,14.873285 77.3518016,15.4405838 L77.3518016,26.484002 C77.3518016,27.0513009 77.8812805,27.5429599 78.4485794,27.5429599 C78.9780584,27.5429599 79.5453573,27.0513009 79.5453573,26.484002 L79.5453573,15.4405838 C79.5453573,14.873285 79.0158783,14.3816259 78.4485794,14.3816259 Z" id="Shape"></path>
                        <path d="M92.5175916,15.4405838 C92.5175916,14.873285 93.0470706,14.3816259 93.6143695,14.3816259 C94.1438484,14.3816259 94.7111473,14.873285 94.7111473,15.4405838 L94.7111473,26.484002 C94.7111473,27.0513009 94.1816684,27.5429599 93.6143695,27.5429599 C93.0092507,27.5429599 92.5175916,27.0513009 92.5175916,26.484002 L92.5175916,25.9545231 C91.307354,27.013481 89.7567371,27.6564197 88.0548404,27.6564197 C84.3106678,27.6564197 81.3607137,24.6686456 81.3607137,20.9622929 C81.3607137,17.2937602 84.3484878,14.3059861 88.0548404,14.3059861 C89.7567371,14.3059861 91.307354,14.9489248 92.5175916,16.0078827 L92.5175916,15.4405838 Z M88.0548404,25.4250441 C90.5509555,25.4250441 92.5175916,23.458408 92.5175916,20.9622929 C92.5175916,18.4661779 90.5509555,16.4995417 88.0548404,16.4995417 C85.5587254,16.4995417 83.5920893,18.4661779 83.5920893,20.9622929 C83.5920893,23.458408 85.5587254,25.4250441 88.0548404,25.4250441 Z" id="Shape"></path>
                        <path d="M105.943665,19.903335 C105.943665,18.0501587 104.355228,16.4617218 102.502052,16.4617218 C100.724515,16.4617218 99.0604387,17.1803004 99.0604387,19.7898753 L99.0604387,26.484002 C99.0604387,27.0513009 98.5309598,27.5429599 97.9636609,27.5429599 C97.3585421,27.5429599 96.866883,27.0513009 96.866883,26.484002 L96.866883,15.4405838 C96.866883,14.873285 97.396362,14.3816259 97.9636609,14.3816259 C98.4931398,14.3816259 99.0226188,14.835465 99.0604387,15.4027639 C100.005937,14.6841853 101.178355,14.3059861 102.464232,14.3059861 C105.452006,14.3059861 108.137221,16.6508214 108.137221,19.6007756 L108.137221,26.484002 C108.137221,27.0513009 107.607742,27.5429599 107.040443,27.5429599 C106.435324,27.5429599 105.943665,27.0513009 105.943665,26.484002 L105.943665,19.903335 Z" id="Shape"></path>
                        <path d="M26.9000212,20.5840937 C26.8622013,17.1803004 23.8366073,14.3059861 20.2437144,14.3059861 C16.4995417,14.3059861 13.5495876,17.2937602 13.5495876,20.9622929 C13.5495876,24.7064655 16.5373617,27.6564197 20.2437144,27.6564197 C22.0212508,27.6564197 23.6853276,26.9756611 24.8955652,25.7654235 C25.1224847,25.5763238 25.2737644,25.2359445 25.2737644,24.9333851 C25.2737644,24.3282663 24.7442855,23.8366073 24.1769866,23.8366073 C23.8366073,23.8366073 23.5340479,24.0257069 23.3071283,24.2904464 C22.5507298,25.0846648 21.453952,25.462864 20.2815343,25.462864 C18.0501587,25.462864 16.2348023,23.950067 15.856603,21.8321512 L25.8410633,21.8321512 C25.8410633,21.8321512 25.8410633,21.8321512 25.8788832,21.8321512 L25.9167032,21.8321512 C25.9167032,21.8321512 25.9545231,21.8321512 25.9545231,21.8321512 C25.992343,21.8321512 26.0301629,21.8321512 26.0679829,21.7943313 C26.521822,21.6052317 26.9000212,21.1513926 26.9000212,20.5840937 Z M20.2437144,16.4995417 C22.2481704,16.4995417 23.9122471,17.7854192 24.479546,19.6007756 L15.9700628,19.6007756 C16.5373617,17.7854192 18.2014384,16.4995417 20.2437144,16.4995417 Z" id="Shape"></path>
                        <path d="M66.6865826,20.5840937 C66.6487627,17.1803004 63.5853488,14.3059861 60.0302758,14.3059861 C56.2861032,14.3059861 53.336149,17.2937602 53.336149,20.9622929 C53.336149,24.7064655 56.3239231,27.6564197 60.0302758,27.6564197 C61.8078123,27.6564197 63.471889,26.9756611 64.6821266,25.7654235 C64.9090462,25.5763238 65.0603259,25.2359445 65.0603259,24.9333851 C65.0603259,24.3282663 64.5308469,23.8366073 63.963548,23.8366073 C63.6231687,23.8366073 63.3206093,24.0257069 63.0936897,24.2904464 C62.3372912,25.0846648 61.2405134,25.462864 60.0680957,25.462864 C57.8367201,25.462864 56.0213637,23.950067 55.6431645,21.8321512 L65.6276247,21.8321512 C65.6276247,21.8321512 65.6276247,21.8321512 65.6654447,21.8321512 L65.7032646,21.8321512 C65.7410845,21.8321512 65.7789044,21.8321512 65.7789044,21.8321512 C65.7789044,21.8321512 65.8167244,21.8321512 65.8167244,21.8321512 C66.2705635,21.6430516 66.6865826,21.1513926 66.6865826,20.5840937 Z M60.0302758,16.4995417 C62.0347318,16.4995417 63.6988085,17.7854192 64.2661074,19.6007756 L55.7566242,19.6007756 C56.3239231,17.7854192 57.9879998,16.4995417 60.0302758,16.4995417 Z" id="Shape"></path>
                        <path d="M110.482056,27.5429599 C110.368596,27.5429599 110.292957,27.4673201 110.292957,27.3538603 L110.292957,25.500684 L109.876937,25.500684 C109.763478,25.500684 109.687838,25.4250441 109.687838,25.3115843 C109.687838,25.1981246 109.763478,25.1224847 109.876937,25.1224847 L111.087175,25.1224847 C111.200635,25.1224847 111.276275,25.1981246 111.276275,25.3115843 C111.276275,25.4250441 111.200635,25.500684 111.087175,25.500684 L110.671156,25.500684 L110.671156,27.3538603 C110.671156,27.4673201 110.595516,27.5429599 110.482056,27.5429599 Z" id="Shape"></path>
                        <path d="M112.637792,27.5429599 C112.524332,27.5429599 112.486512,27.4673201 112.448692,27.3916802 L111.919213,25.8788832 L111.919213,27.3538603 C111.919213,27.4673201 111.843573,27.5429599 111.730114,27.5429599 C111.616654,27.5429599 111.541014,27.4673201 111.541014,27.3538603 L111.541014,25.3872242 C111.541014,25.2359445 111.654474,25.1224847 111.805754,25.1224847 C111.919213,25.1224847 112.032673,25.1981246 112.070493,25.3115843 L112.599972,26.8622013 L113.129451,25.3115843 C113.167271,25.1981246 113.280731,25.1224847 113.39419,25.1224847 C113.54547,25.1224847 113.65893,25.2359445 113.65893,25.3872242 L113.65893,27.3538603 C113.65893,27.4673201 113.58329,27.5429599 113.46983,27.5429599 C113.35637,27.5429599 113.280731,27.4673201 113.280731,27.3538603 L113.280731,25.8788832 C113.205091,26.1058028 113.091631,26.484002 112.978171,26.7865614 C112.789072,27.3916802 112.751252,27.3916802 112.751252,27.3916802 C112.789072,27.50514 112.713432,27.5429599 112.637792,27.5429599 Z" id="Shape"></path>
                    </g>
                </g>
            </g>
        </g>
    </g>
</svg>