<svg width="108px" height="32px" viewBox="0 0 108 32" version="1.1" xmlns="http://www.w3.org/2000/svg" xmlns:xlink="http://www.w3.org/1999/xlink">
    <g stroke="none" stroke-width="1" fill="none" fill-rule="evenodd">
        <g transform="translate(-237.000000, -2667.000000)">
            <g transform="translate(225.765625, 2183.281250)">
                <g transform="translate(11.000000, 470.841403)">
                    <g transform="translate(0.000000, 13.003060)">
                        <path d="M80.1546861,18.9995438 C77.7982251,18.9995438 76.6521632,17.7282387 76.6521632,15.1118549 C76.6521632,12.7656879 78.0332707,11.3073757 80.2559101,11.3073757 C80.682252,11.3073757 81.1712155,11.3339684 81.8368922,11.3931587 L81.8368922,18.8442764 C81.1703577,18.9497896 80.6350713,18.9995438 80.1546861,18.9995438 M80.1761319,9.41156975 C76.445426,9.41156975 74.1301409,11.5724454 74.1301409,15.0518068 C74.1301409,18.6684211 76.2669973,20.9150798 79.7086141,20.9150798 L80.0002766,20.9167955 C80.4300498,20.9167955 81.0253843,20.9030702 81.8368922,20.8001305 L81.8368922,25.1630576 L84.2722736,25.1630576 L84.2722736,9.8035984 C84.2722736,9.8035984 81.9604198,9.41156975 80.1761319,9.41156975 M46.8559276,9.76156469 L40.2840864,21.2316193 L40.2823708,9.76156469 L37.9919627,9.76156469 L37.9919627,24.2803498 L41.1976761,24.2803498 L47.7695174,12.912377 L47.7695174,24.2803498 L50.0856603,24.2803498 L50.0856603,9.76156469 L46.8559276,9.76156469 Z M67.7851959,9.53912918 C66.6794521,9.53912918 65.524812,9.66265681 64.1505671,9.92686867 L64.0055937,9.95517709 L64.0055937,11.9848046 L64.2226249,11.9367661 C65.4330241,11.6794168 66.4778619,11.4572387 67.5235576,11.4572387 C68.3693787,11.4572387 70.3381002,11.5910603 70.3381002,12.834057 C70.3381002,13.878037 68.9767228,14.1379597 67.8838465,14.3481282 L67.81522,14.3609957 C67.6119141,14.4013137 67.4206179,14.4390583 67.2559144,14.481092 C65.6543444,14.8971399 63.9446878,15.5216407 63.9446878,17.668791 C63.9446878,19.7627558 65.6028746,20.9637188 68.4937641,20.9637188 C69.8800186,20.9637188 70.8871118,20.8135984 71.6969041,20.6935021 L72.0915062,20.6343118 L72.0915062,18.6681638 L71.8804798,18.7050505 C70.9660323,18.8740432 69.8911704,19.047325 68.8583422,19.047325 C67.7122803,19.047325 66.3474716,18.8328673 66.3474716,17.8103331 C66.3474716,16.9636541 67.4626516,16.7217459 68.7545447,16.4412352 C70.5594205,16.0474909 72.7992165,15.5585274 72.7992165,13.0965532 C72.7992165,10.8361692 70.9728949,9.53912918 67.7851959,9.53912918 M91.9508022,14.9652517 C89.8731362,14.9652517 88.5855323,14.6598639 88.5855323,13.1372144 C88.5855323,11.3769457 90.2282781,11.2293988 91.7689421,11.2293988 C92.3454044,11.2293988 93.3808061,11.3023145 93.6964878,11.3263337 L93.6964878,14.9060613 C93.2504158,14.923218 92.0906286,14.9652517 91.9508022,14.9652517 M91.1015498,9.53947231 C88.582101,9.53947231 86.2496592,9.98211297 86.2496592,13.1981204 C86.2496592,16.6954962 89.8559796,16.6954962 92.0108504,16.6954962 C92.2270237,16.6954962 93.2401218,16.6491734 93.5515144,16.6354481 C93.5489409,18.5981648 93.5223481,19.0665404 90.6760658,19.0665404 C89.5480184,19.0665404 88.2947277,18.8426466 87.188126,18.6444877 L86.9770997,18.6067431 L86.9770997,20.5454405 L87.1212152,20.5746068 C88.4028143,20.8362452 89.6389484,20.9640619 90.8991018,20.9640619 C93.6578854,20.9640619 95.9946163,20.685267 95.9946163,17.2633802 L95.9946163,9.80025286 L95.8273393,9.78309624 C93.9160924,9.56863856 92.3985899,9.53947231 91.1015498,9.53947231 M57.8160019,14.9652517 C55.7383359,14.9652517 54.450732,14.6598639 54.450732,13.1372144 C54.450732,11.3769457 56.0943356,11.2293988 57.6341418,11.2293988 C58.2114619,11.2293988 59.2460057,11.3023145 59.5625453,11.3263337 L59.5625453,14.9060613 C59.1156155,14.923218 57.9566862,14.9652517 57.8160019,14.9652517 M56.9667495,9.53947231 C54.4473007,9.53947231 52.1148589,9.98211297 52.1148589,13.1981204 C52.1148589,16.6954962 55.7211793,16.6954962 57.8760501,16.6954962 C58.0922234,16.6954962 59.1053215,16.6491734 59.4167141,16.6354481 C59.4141406,18.5981648 59.3884056,19.0665404 56.5421233,19.0665404 C55.413218,19.0665404 54.1599274,18.8426466 53.0533257,18.6444877 L52.8422994,18.6067431 L52.8422994,20.5454405 L52.9864149,20.5746068 C54.2688719,20.8362452 55.5041481,20.9640619 56.7634436,20.9640619 C59.5230851,20.9640619 61.8606738,20.685267 61.8606738,17.2633802 L61.8606738,9.80025286 L61.6916811,9.78309624 C59.7812921,9.56863856 58.2637896,9.53947231 56.9667495,9.53947231 M104.223872,19.005806 C101.75332,19.005806 100.500029,17.7465105 100.500029,15.2613748 C100.500029,12.0659554 102.370958,11.3951317 103.941646,11.3951317 C104.323381,11.3951317 104.754869,11.3951317 105.705346,11.515228 L105.705346,18.9371795 C104.959891,18.9877915 104.617617,19.005806 104.223872,19.005806 Z M105.683042,4.83101102 L105.683042,9.59197156 C104.732566,9.45900779 104.227304,9.45900779 103.820692,9.45900779 C102.857348,9.45900779 101.787633,9.66831849 100.957253,10.0191713 C99.1043384,10.7886454 97.996879,12.7487886 97.996879,15.2613748 C97.996879,16.5180968 98.3022667,18.8110784 100.348193,20.0472125 C101.371585,20.6605614 102.586273,20.9221998 104.40659,20.9221998 C105.059399,20.9221998 105.939534,20.8715878 106.79136,20.8226914 L108.171609,20.7514915 L108.171609,5.9333235 L105.683042,4.83101102 Z" id="path168" fill="#A0A7AC" fill-rule="nonzero" transform="translate(73.081786, 14.997034) scale(1, -1) translate(-73.081786, -14.997034) "></path>
                        <g id="path82-+-path144-+-path120-Mask" transform="translate(18.197665, 15.532175) scale(1, -1) translate(-18.197665, -15.532175) translate(0.197665, 0.032175)">
                            <path d="M26.9743075,30.9201754 L18.9312866,8.82331371 C18.7168289,8.23055268 18.1480871,7.8067843 17.4806948,7.8067843 L25.9560624,7.8067843 C26.6225969,7.8067843 27.1913387,8.23055268 27.4066542,8.82331371 L35.4488172,30.9201754 L26.9743075,30.9201754 Z" id="Mask"></path>
                            <path d="M26.9743075,30.9201754 L18.9312866,8.82331371 C18.7168289,8.23055268 18.1480871,7.8067843 17.4806948,7.8067843 L25.9560624,7.8067843 C26.6225969,7.8067843 27.1913387,8.23055268 27.4066542,8.82331371 L35.4488172,30.9201754 L26.9743075,30.9201754 Z" id="path82" fill="#A0A7AC" fill-rule="nonzero"></path>
                            <path d="M16.7318086,22.1900321 L13.9472901,14.5390398 L16.0301031,8.82331371 C16.2437029,8.23055268 16.8133025,7.8067843 17.479837,7.8067843 L17.4806948,7.8067843 C18.1480871,7.8067843 18.7168289,8.23055268 18.9312866,8.82331371 L21.716663,16.474306 L19.6329921,22.1900321 C19.4185344,22.783651 18.8497927,23.2065615 18.1824004,23.2065615 C17.5158659,23.2065615 16.9462663,22.783651 16.7318086,22.1900321" id="path144" fill="#A0A7AC" fill-rule="nonzero"></path>
                            <path d="M9.7078906,23.2065615 C9.04049829,23.2065615 8.47175652,22.783651 8.25729884,22.1900321 L0.215135766,0.0940282277 L8.68964552,0.0940282277 L16.7318086,22.1900321 C16.9462663,22.783651 17.5158659,23.2065615 18.1824004,23.2065615 L9.7078906,23.2065615 Z" id="path120" fill="#A0A7AC" fill-rule="nonzero"></path>
                        </g>
                    </g>
                </g>
            </g>
        </g>
    </g>
</svg>