<svg width="117px" height="36px" viewBox="0 0 117 36" version="1.1" xmlns="http://www.w3.org/2000/svg" xmlns:xlink="http://www.w3.org/1999/xlink">
    <g id="Page-1" stroke="none" stroke-width="1" fill="none" fill-rule="evenodd">
        <g id="Homepage-Customers-Down-Copy" transform="translate(-580.000000, -2665.000000)" fill="#A0A7AC" fill-rule="nonzero">
            <g id="Customers-Section" transform="translate(225.765625, 2183.281250)">
                <g id="Logos" transform="translate(11.000000, 470.841403)">
                    <g id="Natgeologo" transform="translate(343.234375, 11.737884)">
                        <path d="M0,34.3551217 L0,0.00911704292 L23.9667188,0.00911704292 L23.9667188,34.3551217 L0,34.3551217 Z M20.498619,30.8952039 L20.498619,3.46880106 L3.4511514,3.46880106 L3.4511514,30.8952039 L20.498619,30.8952039 Z" id="Shape"></path>
                        <g id="Group" transform="translate(30.857684, 3.155899)">
                            <path d="M9.03382068,12.2585655 L7.55101547,12.2585655 C5.60768271,9.51082904 3.67241502,6.77992403 1.74579683,3.68889583 L1.74579683,12.2585655 L0.0705986401,12.2585655 L0.0705986401,0.304485857 L1.55317008,0.304485857 C3.49673662,3.03539087 5.43177053,5.7495813 7.34167414,8.82401181 L7.34167414,0.304485857 L9.0171061,0.304485857 L9.0171061,12.2585655 L9.03382068,12.2585655 Z" id="Shape"></path>
                            <path d="M12.9208369,7.53395024 C13.3983128,5.96745525 13.8757887,4.50978035 14.3030039,2.66696882 C14.7804799,4.50989723 15.207812,5.96745525 15.6517419,7.53395024 L12.9208369,7.53395024 Z M13.7081753,0.312901588 L9.56985605,12.2585655 L11.3459261,12.2585655 L12.3845677,8.99992398 L15.9867348,8.99992398 L16.9248551,12.2585655 L19.2118303,12.2585655 L15.433751,0.304485857 L13.7585528,0.304485857 L13.7081753,0.312901588 Z" id="Shape"></path>
                            <polygon id="Shape" points="21.1553968 12.2585655 21.1553968 1.91294262 18.0138742 1.91294262 18.0138742 0.312901588 26.3240588 0.312901588 26.3240588 1.91294262 23.18277 1.91294262 23.18277 12.2585655 21.1303834 12.2585655 21.1553968 12.2585655"></polygon>
                            <polygon id="Shape" points="27.0194087 12.2585655 27.0194087 0.304485857 29.0549638 0.304485857 29.0549638 12.2585655"></polygon>
                            <path d="M35.3629056,10.7339154 C33.2268292,10.7339154 32.4728029,8.37996507 32.4728029,6.09298991 C32.4728029,3.80601476 33.3105189,1.78717418 35.3629056,1.78717418 C37.4154091,1.78717418 38.2447093,3.88993831 38.2447093,6.09298991 C38.2447093,8.29627529 37.4990988,10.7339154 35.3629056,10.7339154 Z M35.3629056,12.4093474 C38.4874798,12.4093474 40.4309295,9.62829863 40.4309295,6.05956076 C40.4309295,2.70881371 38.2780216,0.0448839036 35.3629056,0.0448839036 C32.4477895,0.0448839036 30.2947648,2.70881371 30.2947648,6.05956076 C30.2947648,9.67832549 32.2384482,12.4680237 35.3629056,12.4680237 L35.3629056,12.4093474 Z" id="Shape"></path>
                            <path d="M50.6175885,12.2585655 L49.1347833,12.2585655 C47.1914505,9.51082904 45.2561829,6.77992403 43.3295647,3.68889583 L43.3295647,12.2585655 L41.6542496,12.2585655 L41.6542496,0.304485857 L43.1369379,0.304485857 C45.0803876,3.03539087 47.0155384,5.7495813 48.9253251,8.82401181 L48.9253251,0.304485857 L50.6007571,0.304485857 L50.6007571,12.2585655 L50.6175885,12.2585655 Z" id="Shape"></path>
                            <path d="M54.5296181,7.53395024 C55.0072109,5.96745525 55.4846868,4.50978035 55.9117852,2.66696882 C56.3892611,4.50989723 56.8163595,5.96745525 57.26064,7.53395024 L54.4960721,7.53395024 L54.5296181,7.53395024 Z M55.3170735,0.312901588 L51.1871699,12.2669812 L52.9631231,12.2669812 L54.0018816,9.00822283 L57.6040486,9.00822283 L58.542169,12.2669812 L60.8291441,12.2669812 L57.0175189,0.312901588 L55.3420869,0.312901588 L55.3170735,0.312901588 Z" id="Shape"></path>
                            <polygon id="Shape" points="61.4238559 0.304485857 63.4596448 0.304485857 63.4596448 10.6501088 67.5057417 10.6501088 67.5057417 12.2585655 61.4238559 12.2585655"></polygon>
                        </g>
                        <g id="Group" transform="translate(29.455062, 18.584741)">
                            <path d="M9.17139452,6.83205482 L9.17139452,11.7660114 C8.09347952,12.2211623 6.9401736,12.4710627 5.77050374,12.5032062 C2.25202649,12.5032062 0.0319096502,9.77230116 0.0319096502,6.25405767 C0.0319096502,2.99518237 2.25202649,0.138859577 5.83736206,0.138859577 C6.8747179,0.14458695 7.88554082,0.466021155 8.7358804,1.06026534 L8.07407659,2.47597846 C7.41215589,2.08020529 6.65871412,1.86385085 5.88785645,1.84783758 C3.70128566,1.84783758 2.21848044,3.57353017 2.21848044,6.28760372 C2.21848044,9.00167726 3.89379552,10.7944619 5.68669708,10.7944619 C6.18100444,10.8158519 6.67297411,10.71498 7.1190079,10.5011971 L7.1190079,6.83205482 L9.17139452,6.83205482 Z" id="Shape"></path>
                            <polygon id="Shape" points="16.501497 1.94800817 13.0836579 1.94800817 13.0836579 5.22359805 16.4344049 5.22359805 16.4344049 6.83205482 13.0836579 6.83205482 13.0836579 10.6938238 17.1130402 10.6938238 17.1130402 12.3021637 11.0313882 12.3021637 11.0313882 0.33148633 16.4933151 0.33148633 16.4933151 1.93982621"></polygon>
                            <path d="M22.8177376,10.794345 C20.6816612,10.794345 19.9360507,8.44027781 19.9360507,6.15353643 C19.9360507,3.86656128 20.7737667,1.84760381 22.8177376,1.84760381 C24.8618254,1.84760381 25.7079571,3.95025106 25.7079571,6.15353643 C25.7078402,8.35658803 24.9539309,10.794345 22.8177376,10.794345 Z M22.8177376,12.469777 C25.9423119,12.469777 27.8858784,9.6884945 27.8858784,6.11999039 C27.8858784,2.76924334 25.7329705,0.105313534 22.8177376,0.105313534 C19.9027385,0.105313534 17.7498306,2.76924334 17.7498306,6.11999039 C17.7498306,9.72204054 19.6931634,12.5032062 22.8177376,12.5032062 L22.8177376,12.469777 Z" id="Shape"></path>
                            <path d="M37.7288951,6.83205482 L37.7288951,11.7660114 C36.6509801,12.2211623 35.4974404,12.4710627 34.3277705,12.5032062 C30.8094102,12.5032062 28.5894102,9.77230116 28.5894102,6.25405767 C28.5894102,2.99518237 30.8094102,0.138859577 34.3948626,0.138859577 C35.4321016,0.14458695 36.4429245,0.466021155 37.2932641,1.06026534 L36.6315771,2.47597846 C35.9695396,2.08020529 35.2159809,1.86385085 34.4450063,1.84783758 C32.2586693,1.84783758 30.7758641,3.57353017 30.7758641,6.28760372 C30.7758641,9.00167726 32.4512961,10.7944619 34.2439639,10.7944619 C34.7382712,10.8158519 35.2302409,10.71498 35.6765085,10.5011971 L35.6765085,6.83205482 L37.7288951,6.83205482 Z" id="Shape"></path>
                            <path d="M41.6576393,1.94800817 L42.5624473,1.94800817 C43.5154121,1.85368184 44.3644659,2.549733 44.4589091,3.50293153 C44.4711821,3.62671292 44.4701301,3.75142939 44.4557532,3.87486013 C44.6065351,5.02641278 43.7951183,6.08200271 42.6436825,6.23266769 C42.6000844,6.23827818 42.5562524,6.24271981 42.5121867,6.24564194 L41.6744707,6.29590256 L41.6744707,1.93970932 L41.6576393,1.94800817 Z M46.8515485,12.2939817 L44.4807667,7.34307676 C45.7693087,6.62773955 46.5633097,5.2649754 46.5499848,3.79117035 C46.5499848,1.47064915 45.1341547,0.339902062 42.8472965,0.339902062 L39.6556301,0.339902062 L39.6556301,12.2939817 L41.7080168,12.2939817 L41.7080168,7.78688974 L42.6295394,7.78688974 L44.5560407,12.2939817 L46.8935103,12.2939817 L46.8515485,12.2939817 Z" id="Shape"></path>
                            <path d="M50.2275427,7.56924956 C50.7050186,6.00275457 51.1824945,4.54507967 51.6098267,2.70203437 C52.0873026,4.54507967 52.514401,5.99422195 52.9583309,7.56924956 L50.1941136,7.56924956 L50.2275427,7.56924956 Z M51.0148812,0.33148633 L46.8850945,12.2854491 L48.6694635,12.2854491 L49.7082219,9.0265738 L53.3101552,9.0265738 L54.2483924,12.2854491 L56.5353676,12.2854491 L52.7238592,0.33148633 L51.0485441,0.33148633 L51.0148812,0.33148633 Z" id="Shape"></path>
                            <path d="M60.3972534,0.33148633 L57.2055871,0.33148633 L57.2055871,12.2854491 L59.2579737,12.2854491 L59.2579737,7.78688974 L60.1796133,7.78688974 C62.3354433,7.8013835 64.0949157,6.06540502 64.1092925,3.90945814 C64.1097601,3.86995095 64.1092925,3.83044376 64.1083575,3.79105346 C64.0748114,1.47053227 62.6589814,0.33148633 60.3972534,0.33148633 Z M60.1039886,6.23710932 L59.2662726,6.28736995 L59.2662726,1.93982621 L60.1877952,1.93982621 C61.1416951,1.85485069 61.9839696,2.5592007 62.069062,3.51298365 C62.0795816,3.6308039 62.0778284,3.74920857 62.0642697,3.86644439 C62.2185581,5.02220491 61.4067906,6.08398976 60.2510301,6.23816129 C60.1939901,6.24575883 60.1365995,6.25101866 60.0789751,6.25405767 L60.1039886,6.23710932 Z" id="Shape"></path>
                            <polygon id="Shape" points="73.5743026 12.2939817 71.521916 12.2939817 71.521916 6.53890682 67.2663609 6.53890682 67.2663609 12.2939817 65.2308057 12.2939817 65.2308057 0.33148633 67.2663609 0.33148633 67.2663609 4.92191744 71.521916 4.92191744 71.521916 0.364798602 73.5743026 0.364798602 73.5743026 12.2854491"></polygon>
                            <polygon id="Shape" points="75.5347006 12.2939817 75.5347006 0.33148633 77.5702558 0.33148633 77.5702558 12.2854491 75.5347006 12.2854491"></polygon>
                            <path d="M86.7850147,2.50952451 C86.1534841,2.1101279 85.4286792,1.88208494 84.6823674,1.84783758 C82.5963179,1.84783758 81.0802004,3.5732964 81.0802004,6.28736995 C81.0802004,9.00144349 82.7557492,10.794345 84.7327449,10.794345 C85.4590694,10.7924749 86.1703156,10.5865232 86.7851316,10.1996333 L87.3464141,11.6824385 C86.541426,12.2046815 85.6082148,12.4944398 84.6490552,12.5200376 C81.1305779,12.5200376 78.9108117,9.78913262 78.9108117,6.27065537 C78.9108117,3.01213072 81.1138633,0.155574155 84.6824843,0.155574155 C85.6688782,0.186198069 86.6245313,0.506697193 87.4302208,1.0770968 L86.7850147,2.50952451 Z" id="Shape"></path>
                        </g>
                    </g>
                </g>
            </g>
        </g>
    </g>
</svg>